<?xml version="1.0" encoding="utf-8"?>
<!-- Generator: Adobe Illustrator 27.4.0, SVG Export Plug-In . SVG Version: 6.00 Build 0)  -->
<svg version="1.1" id="Layer_1" xmlns="http://www.w3.org/2000/svg" xmlns:xlink="http://www.w3.org/1999/xlink" x="0px" y="0px"
	 viewBox="0 0 322.1 181.5" style="enable-background:new 0 0 322.1 181.5;" xml:space="preserve">
<style type="text/css">
	.st0{fill:#0DE00D;}
	.st1{fill:#00B03B;}
</style>
<g id="Layer_2_00000025418197556193756830000009764287783802410922_">
	<g id="Layer_1-2">
		<path class="st0" d="M318.2,151c2.6-6.1,3.9-12.7,3.9-19.4v-23.3c0.3-23.3-18.4-42.4-41.8-42.7c-0.3,0-0.5,0-0.8,0
			c-5.8,0-11.5,1.1-16.8,3.3c-5.1,2.1-9.8,5.2-13.7,9.1c-8,8-12.5,19-12.4,30.3c0,5.8,1.1,11.5,3.3,16.9
			c4.2,10.4,12.4,18.6,22.8,22.9c5.3,2.2,11.1,3.3,16.8,3.3c4.4,0.1,8.7-0.6,12.8-2.1c-2.4,2.8-5.3,5-8.6,6.6
			c-3.3,1.6-6.8,2.4-10.4,2.4h41.1C315.8,155.9,317.1,153.5,318.2,151z M293.6,122.4c-7.7,7.7-20.1,7.7-27.8,0.1l-0.1-0.1
			c-7.6-7.4-7.8-19.7-0.4-27.3c0.1-0.1,0.3-0.3,0.4-0.4c7.7-7.7,20.1-7.7,27.8-0.1l0.1,0.1c7.6,7.4,7.8,19.7,0.4,27.3
			C293.9,122.1,293.7,122.3,293.6,122.4L293.6,122.4z"/>
		<path class="st1" d="M307.6,166.8c2.6-2.6,4.8-5.5,6.8-8.6H35.3c-2.8,0.1-5.6,0.7-8.2,1.9c-2.9,1.3-5.6,3-8,5.1
			c-2.6,2.2-4.8,4.7-6.7,7.4c-1.9,2.6-3.2,5.6-3.9,8.8h263.8c6.7,0,13.3-1.3,19.5-3.9C297.8,175.1,303.1,171.4,307.6,166.8z"/>
		<path class="st0" d="M42.9,31.9c23.3-0.2,42.4,18.6,42.6,41.9c0,0.2,0,0.5,0,0.7v20h8.6v23.2H81.6c-3.9,8.8-10.2,16.4-18.2,21.7
			c-8.2,5.6-17.8,8.5-27.7,8.3H8.6c0.7-3.2,2-6.2,3.9-8.9c1.9-2.8,4.1-5.3,6.7-7.5c2.4-2.1,5.1-3.8,8-5c2.6-1.1,5.4-1.8,8.2-1.8
			c6.8,0.1,13.4-2.4,18.5-6.8H42.6c-17.2,0.1-32.7-10.1-39.3-26c-6.7-16.1-3.2-34.6,9.1-47c3.9-3.9,8.6-7.1,13.7-9.3
			C31.4,33,37.1,31.8,42.9,31.9z M62.2,73.1c-0.3-4.9-2.5-9.5-6.1-12.8c-3.5-3.4-8.3-5.3-13.2-5.2C32.1,55,23.3,63.7,23.2,74.6
			c0,0.1,0,0.2,0,0.3C23.1,80,25.2,85,29,88.5c3.7,3.7,8.6,5.8,13.7,5.9h19.5V73.1z"/>
		<path class="st0" d="M112.5,117.6H79.2V94.4h33c3.5,0,6.9-0.7,10.1-2.1c3.1-1.3,5.9-3.3,8.3-5.7c2.4-2.4,4.3-5.3,5.7-8.5
			s2.1-6.7,2.1-10.3c0-14.6-11.8-26.5-26.4-26.5h-0.1h-0.6c-6.7-0.2-11.7-2.5-14.9-7c-3.2-4.5-4.8-9.9-4.8-16.2h127.7
			c0.1,6.2-2.4,12.1-6.9,16.4c-4.3,4.4-10.2,6.9-16.4,6.8h-42.3c2.4,3.9,4.3,8.1,5.7,12.5c1.4,4.5,2.1,9.3,2.1,14
			c0.1,6.6-1.3,13.2-3.9,19.3c-2.5,5.8-6.1,11.1-10.6,15.6s-9.8,8.1-15.6,10.7C125.6,116.3,119.1,117.6,112.5,117.6z M157.5,0
			c3.5,0,6.8,1.4,9.2,3.9c2.5,2.4,3.9,5.8,3.9,9.2H114c0-3.2,0.9-6.4,2.7-9.1c1.8-2.7,4.7-4,8.6-4H157.5z"/>
		<path class="st0" d="M196.1,98.5c0.1,6.6-1.3,13.2-3.9,19.3c-5.1,11.9-14.7,21.4-26.6,26.5c-6.1,2.6-12.6,3.9-19.2,3.9h-27.1
			c0.7-3.1,1.9-6.1,3.7-8.8c1.8-2.8,4.1-5.3,6.7-7.4c2.5-2,5.1-3.7,8-5.1c2.5-1.2,5.2-1.9,8-1.9c3.6,0,7.2-0.6,10.6-1.9
			c3.2-1.2,6.1-3.1,8.6-5.5s4.5-5.3,5.8-8.5c1.4-3.3,2.1-6.9,2.1-10.6V55.4c3.1,0.3,6.2,1.3,8.8,3.1c2.8,1.9,5.4,4.2,7.4,6.8
			c2.1,2.7,3.8,5.6,5.1,8.8c1.2,2.9,1.9,6.1,1.9,9.2L196.1,98.5z"/>
		<path class="st0" d="M209,54.8c0-3.2,0.7-6.3,1.9-9.2c1.3-3.1,3-6.1,5.1-8.8s4.6-5,7.4-6.8c2.6-1.8,5.6-2.9,8.8-3.1v93.5
			c0,3.2-0.7,6.3-1.9,9.2c-1.3,3.1-3,6.1-5.1,8.8s-4.6,5-7.4,6.9c-2.6,1.8-5.6,2.9-8.8,3.1V54.8z"/>
	</g>
</g>
</svg>
